# xmcd CD database file
#
# Track frame offsets:
#	150
#	7020
#	23447
#	70697
#	105610
#	150205
#	179140
#	204852
#	235332
#	284405
#	305040
#
# Disc length: 4263 seconds
#
# Revision: 0
# Processed by: cddbd v1.5PL3 Copyright (c) Steve Scherf et al.
# Submitted via: CDex 1.51
#
DISCID=8a10a50b
DTITLE=サイバーフォーミュラSAGAII - ROUND2 ウェディング・ラプソディー
DYEAR=1999
DGENRE=Anime
TTITLE0=Soul of Rebirth
TTITLE1=プロローグ
TTITLE2=タイトルコール・あすか宅
TTITLE3=ドライブ中のハヤトとあすか
TTITLE4=ドイツ空港
TTITLE5=テストコースラウンジ
TTITLE6=酒場
TTITLE7=レストラン「ハンザ」
TTITLE8=翌朝・ホテルラウンジ
TTITLE9=エピローグ
TTITLE10=BONUS TRACK（９８年７月収録）
EXTD=YEAR: 1999
EXTT0=
EXTT1=
EXTT2=
EXTT3=
EXTT4=
EXTT5=
EXTT6=
EXTT7=
EXTT8=
EXTT9=
EXTT10=
PLAYORDER=
